# xmcd CD database file
#
# Track frame offsets:
#	150
#	10611
#	18840
#	31347
#	40831
#	50069
#	60241
#	71122
#	81730
#	91272
#	108532
#	120607
#	131745
#	145268
#
# Disc length: 2171 seconds
#
# Revision: 3
# Processed by: cddbd v1.5.2PL0 Copyright (c) Steve Scherf et al.
# Submitted via: CDex 1.51
#
DISCID=bd08790e
DTITLE=Various Artist - Country Classics [CD3]
DYEAR=2000
DGENRE=Country
TTITLE0=Buck Owens - Excuse Me (I Think I've Got A Heartache)
TTITLE1=Johnny Cash - Guess Things Happen That Way
TTITLE2=Frankie Laine - High Noon
TTITLE3=Merle Travis - 16 Tons
TTITLE4=The Harden Trio - Tippytoeing
TTITLE5=Willie Nelson - Pride Wins Again
TTITLE6=Dolly Parton - It Wasn't God Who Made Honkytonk Angels
TTITLE7=Patsy Cline - I Don't Wana
TTITLE8=George Jones - The Race Is On
TTITLE9=Bobby Bare - Sylvia's Mother
TTITLE10=Charlie Rich - She
TTITLE11=Merle Kilgore - Love Has Made You Beautiful
TTITLE12=Wilma Burgess - Baby
TTITLE13=Glen Campbell - Southern Nights
EXTD=YEAR: 2000
EXTT0=
EXTT1=
EXTT2=
EXTT3=
EXTT4=
EXTT5=
EXTT6=
EXTT7=
EXTT8=
EXTT9=
EXTT10=
EXTT11=
EXTT12=
EXTT13=
PLAYORDER=
